<?xml version="1.0" encoding="UTF-8" standalone="no"?>
<!-- Created with Inkscape (http://www.inkscape.org/) -->

<svg
   width="256"
   height="256"
   viewBox="0 0 256 256"
   version="1.1"
   id="svg1"
   xmlns="http://www.w3.org/2000/svg"
   xmlns:svg="http://www.w3.org/2000/svg">
  <defs
     id="defs1">
    <linearGradient
       id="swatch6">
      <stop
         style="stop-color:#ffffff;stop-opacity:1;"
         offset="0"
         id="stop7" />
    </linearGradient>
  </defs>
  <g
     id="layer2">
    <circle
       style="fill:#3daee9;stroke-width:0;stroke-linecap:round"
       id="path2"
       cx="126.6142"
       cy="126.61417"
       r="122.83465" />
  </g>
  <g
     id="layer1">
    <path
       id="path1"
       style="color:#000000;fill:#fcfcfc;-inkscape-stroke:none"
       d="M 128,0 C 57.447544,0 0,57.447558 0,128 0,198.55244 57.447544,256 128,256 198.55246,256 256,198.55244 256,128 256,57.447558 198.55246,0 128,0 Z m 0,7.8476562 C 194.31145,7.8476563 248.15234,61.688566 248.15234,128 248.15234,194.31143 194.31145,248.15234 128,248.15234 61.68855,248.15234 7.8476563,194.31143 7.8476562,128 7.8476563,61.688566 61.68855,7.8476562 128,7.8476562 Z m 0,7.8476558 C 65.929915,15.695312 15.695312,65.929933 15.695312,128 15.695312,190.07007 65.929915,240.30469 128,240.30469 190.07009,240.30469 240.30469,190.07007 240.30469,128 240.30469,65.929933 190.07009,15.695312 128,15.695312 Z m 0,7.847657 c 57.82908,0 104.45703,46.627974 104.45703,104.457031 0,57.82906 -46.62795,104.45703 -104.45703,104.45703 C 70.170922,232.45703 23.542969,185.82906 23.542969,128 23.542969,70.170943 70.170922,23.542969 128,23.542969 Z" />
    <path
       id="path12"
       style="color:#000000;fill:#fcfcfc;stroke-linecap:round;-inkscape-stroke:none"
       d="M 79.5,47.289062 A 13.1088,13.1088 0 0 0 66.390625,60.398438 v 4.958984 62.166018 a 11.31325,11.31325 0 0 0 -0.0098,0.0742 11.31325,11.31325 0 0 0 0.0098,0.0742 v 67.49609 A 13.1088,13.1088 0 0 0 79.5,208.27734 13.1088,13.1088 0 0 0 92.609375,195.16797 v -56.25586 h 70.810545 v 56.73437 a 13.1088,13.1088 0 0 0 13.10742,13.10743 13.1088,13.1088 0 0 0 13.10938,-13.10743 V 65.835938 60.876953 A 13.1088,13.1088 0 0 0 176.52734,47.767578 13.1088,13.1088 0 0 0 163.41992,60.876953 v 4.958985 50.449222 H 92.609375 V 65.357422 60.398438 A 13.1088,13.1088 0 0 0 79.5,47.289062 Z m 0.125,7.992188 c 1.871913,0 6.009766,0.931647 6.009766,3.623047 V 124.32617 H 170.36523 V 58.904297 c 0,-2.6914 4.13786,-3.623047 6.00977,-3.623047 1.97043,0 6.10742,0.931647 6.10742,3.623047 V 197.09766 c 0,2.6914 -4.13699,3.62304 -6.10742,3.62304 -1.87191,0 -6.00977,-0.93164 -6.00977,-3.62304 V 131.57227 H 85.634766 v 65.52539 c 0,2.6914 -4.137853,3.62304 -6.009766,3.62304 -1.970435,0 -6.107422,-0.93164 -6.107422,-3.62304 V 58.904297 c 0,-2.6914 4.136987,-3.623047 6.107422,-3.623047 z" />
  </g>
</svg>
