<?xml version="1.0" encoding="UTF-8" standalone="no"?>
<!-- Created with Inkscape (http://www.inkscape.org/) -->

<svg
   width="611.04041mm"
   height="385.6239mm"
   viewBox="0 0 2165.1038 1366.3839"
   id="svg7658"
   version="1.1"
   xml:space="preserve"
   xmlns="http://www.w3.org/2000/svg"
   xmlns:svg="http://www.w3.org/2000/svg"
   xmlns:rdf="http://www.w3.org/1999/02/22-rdf-syntax-ns#"
   xmlns:cc="http://creativecommons.org/ns#"
   xmlns:dc="http://purl.org/dc/elements/1.1/"><defs
     id="defs7660" /><metadata
     id="metadata7663"><rdf:RDF><cc:Work
         rdf:about=""><dc:format>image/svg+xml</dc:format><dc:type
           rdf:resource="http://purl.org/dc/dcmitype/StillImage" /><dc:title /></cc:Work></rdf:RDF></metadata><g
     id="layer1"
     transform="translate(-66.64334,347.12602)"><g
       id="g22236"
       transform="matrix(7.5438967,0,0,7.5438967,-52748.172,-19352.935)"><rect
         style="fill:#22313f;fill-opacity:1;stroke:none"
         id="rect21880"
         width="256"
         height="169"
         x="7016.5928"
         y="2519.3623" /><rect
         y="2538.4541"
         x="7024.5"
         height="135"
         width="240"
         id="rect21882"
         style="fill:#3daee9;fill-opacity:1;stroke:none" /><path
         id="rect21884"
         transform="translate(-4.9229925e-6)"
         d="m 7001,2686.375 c -0.1165,18.2954 13.9744,13.2635 15.2502,14 h 256.625 c 9.2391,-0.066 15.1248,-2.3955 15.1248,-14 z"
         style="fill:#34495e;fill-opacity:1;stroke:none" /><path
         style="fill:#67809f;fill-opacity:1;stroke:none"
         d="m 7940.9062,2693.75 v 3.1122 c 0,2.6266 2.103,2.7628 2.8439,2.7628 h 70.4286 c 2.0158,0.1459 3.0713,-0.8124 3.0713,-2.2003 v -3.6747 z"
         transform="matrix(0.91028986,0,0,0.91028986,-118.78066,238.66502)"
         id="rect21887" /><g
         id="g22048"><circle
           r="3.5"
           cy="2530.3623"
           cx="7142"
           transform="matrix(0.94949234,0,0,0.94949234,363.31848,126.5651)"
           id="path22046"
           style="fill:#6c7a89;fill-opacity:1;stroke:none" /><circle
           r="3.5"
           cy="2530.3623"
           cx="7142"
           style="fill:#bdc3c7;fill-opacity:1;stroke:none"
           id="path22044"
           transform="matrix(0.67624722,0,0,0.67624722,2314.8351,817.97427)" /></g></g><g
       id="layer1-3"
       transform="matrix(1.875,0,0,1.875,913.125,90.856299)"><path
         id="path1"
         style="color:#000000;fill:#fcfcfc;-inkscape-stroke:none"
         d="M 128,0 C 57.447544,0 0,57.447558 0,128 0,198.55244 57.447544,256 128,256 198.55246,256 256,198.55244 256,128 256,57.447558 198.55246,0 128,0 Z m 0,7.8476562 C 194.31145,7.8476563 248.15234,61.688566 248.15234,128 248.15234,194.31143 194.31145,248.15234 128,248.15234 61.68855,248.15234 7.8476563,194.31143 7.8476562,128 7.8476563,61.688566 61.68855,7.8476562 128,7.8476562 Z m 0,7.8476558 C 65.929915,15.695312 15.695312,65.929933 15.695312,128 15.695312,190.07007 65.929915,240.30469 128,240.30469 190.07009,240.30469 240.30469,190.07007 240.30469,128 240.30469,65.929933 190.07009,15.695312 128,15.695312 Z m 0,7.847657 c 57.82908,0 104.45703,46.627974 104.45703,104.457031 0,57.82906 -46.62795,104.45703 -104.45703,104.45703 C 70.170922,232.45703 23.542969,185.82906 23.542969,128 23.542969,70.170943 70.170922,23.542969 128,23.542969 Z" /><path
         id="path12"
         style="color:#000000;fill:#fcfcfc;stroke-linecap:round;-inkscape-stroke:none"
         d="M 79.5,47.289062 A 13.1088,13.1088 0 0 0 66.390625,60.398438 v 4.958984 62.166018 a 11.31325,11.31325 0 0 0 -0.0098,0.0742 11.31325,11.31325 0 0 0 0.0098,0.0742 v 67.49609 A 13.1088,13.1088 0 0 0 79.5,208.27734 13.1088,13.1088 0 0 0 92.609375,195.16797 v -56.25586 h 70.810545 v 56.73437 a 13.1088,13.1088 0 0 0 13.10742,13.10743 13.1088,13.1088 0 0 0 13.10938,-13.10743 V 65.835938 60.876953 A 13.1088,13.1088 0 0 0 176.52734,47.767578 13.1088,13.1088 0 0 0 163.41992,60.876953 v 4.958985 50.449222 H 92.609375 V 65.357422 60.398438 A 13.1088,13.1088 0 0 0 79.5,47.289062 Z m 0.125,7.992188 c 1.871913,0 6.009766,0.931647 6.009766,3.623047 V 124.32617 H 170.36523 V 58.904297 c 0,-2.6914 4.13786,-3.623047 6.00977,-3.623047 1.97043,0 6.10742,0.931647 6.10742,3.623047 V 197.09766 c 0,2.6914 -4.13699,3.62304 -6.10742,3.62304 -1.87191,0 -6.00977,-0.93164 -6.00977,-3.62304 V 131.57227 H 85.634766 v 65.52539 c 0,2.6914 -4.137853,3.62304 -6.009766,3.62304 -1.970435,0 -6.107422,-0.93164 -6.107422,-3.62304 V 58.904297 c 0,-2.6914 4.136987,-3.623047 6.107422,-3.623047 z" /></g></g></svg>
